<?xml version="1.0" encoding="utf-8"?>
<svg xmlns="http://www.w3.org/2000/svg">
<symbol id="minus" viewBox="0 0 16 16">
<path d="M0 6.5v3c0 0.276 0.224 0.5 0.5 0.5h15c0.276 0 0.5-0.224 0.5-0.5v-3c0-0.276-0.224-0.5-0.5-0.5h-15c-0.276 0-0.5 0.224-0.5 0.5z"/>

</symbol>
<symbol id="plus" viewBox="0 0 16 16">
<path d="M15.5 6h-5.5v-5.5c0-0.276-0.224-0.5-0.5-0.5h-3c-0.276 0-0.5 0.224-0.5 0.5v5.5h-5.5c-0.276 0-0.5 0.224-0.5 0.5v3c0 0.276 0.224 0.5 0.5 0.5h5.5v5.5c0 0.276 0.224 0.5 0.5 0.5h3c0.276 0 0.5-0.224 0.5-0.5v-5.5h5.5c0.276 0 0.5-0.224 0.5-0.5v-3c0-0.276-0.224-0.5-0.5-0.5z"/>

</symbol>
<symbol id="search" viewBox="0 0 15 16">
<path d="M15 13l-3.893-3.893c0.556-0.907 0.893-1.964 0.893-3.107 0-3.313-2.688-6-6-6s-6 2.687-6 6c0 3.313 2.687 6 6 6 1.143 0 2.2-0.337 3.107-0.891l3.893 3.891c0.273 0.273 0.727 0.271 1 0l1-1c0.273-0.273 0.273-0.727 0-1zM6 10c-2.209 0-4-1.791-4-4s1.791-4 4-4 4 1.791 4 4-1.791 4-4 4z"/>

</symbol>
<symbol id="shopping-cart" viewBox="0 0 26 28">
<title>shopping-cart</title>
<path d="M10 24c0 1.094-0.906 2-2 2s-2-0.906-2-2 0.906-2 2-2 2 0.906 2 2zM24 24c0 1.094-0.906 2-2 2s-2-0.906-2-2 0.906-2 2-2 2 0.906 2 2zM26 7v8c0 0.5-0.391 0.938-0.891 1l-16.312 1.906c0.078 0.359 0.203 0.719 0.203 1.094 0 0.359-0.219 0.688-0.375 1h14.375c0.547 0 1 0.453 1 1s-0.453 1-1 1h-16c-0.547 0-1-0.453-1-1 0-0.484 0.703-1.656 0.953-2.141l-2.766-12.859h-3.187c-0.547 0-1-0.453-1-1s0.453-1 1-1h4c1.047 0 1.078 1.25 1.234 2h18.766c0.547 0 1 0.453 1 1z"/>

</symbol>
<symbol id="triangle-down" viewBox="0 0 12 16">
<title>triangle-down</title>
<path fill="#444" d="M0 6l5.996 5.996 5.996-5.996h-11.992z"/>

</symbol>
<symbol id="triangle-left" viewBox="0 0 6 16">
<title>triangle-left</title>
<path fill="#444" d="M0 7.998l5.996 5.996v-11.992l-5.996 5.996z"/>

</symbol>
<symbol id="triangle-right" viewBox="0 0 6 16">
<title>triangle-right</title>
<path fill="#444" d="M0.001 2.004l5.996 5.996-5.996 5.996v-11.992z"/>

</symbol>
<symbol id="triangle-up" viewBox="0 0 12 16">
<title>triangle-up</title>
<path fill="#444" d="M5.996 4l-5.996 5.996h11.992l-5.996-5.996z"/>

</symbol></svg>